<?xml version="1.0" standalone="no"?>
<!DOCTYPE svg PUBLIC "-//W3C//DTD SVG 20010904//EN"
 "http://www.w3.org/TR/2001/REC-SVG-20010904/DTD/svg10.dtd">
<svg version="1.0" xmlns="http://www.w3.org/2000/svg"
 width="2560.000000pt" height="565.000000pt" viewBox="0 0 2560.000000 565.000000"
 preserveAspectRatio="xMidYMid meet">

<g transform="translate(0.000000,565.000000) scale(0.100000,-0.100000)"
fill="#000000" stroke="none">
<path d="M3105 5626 c-128 -34 -2620 -1066 -2663 -1103 -86 -73 -71 -222 27
-272 62 -32 2542 -1012 2608 -1032 149 -42 308 -46 468 -9 102 24 2650 1032
2681 1061 32 30 54 81 54 125 0 51 -35 119 -73 142 -45 28 -2547 1060 -2626
1084 -51 16 -103 21 -226 24 -145 4 -169 2 -250 -20z"/>
<path d="M9469 4559 c-23 -8 -97 -188 -734 -1772 -389 -969 -708 -1775 -708
-1791 -1 -55 7 -56 363 -56 245 0 330 3 343 12 10 7 80 181 158 393 78 209
148 388 157 398 14 16 62 17 737 17 675 0 723 -1 738 -18 8 -9 79 -188 157
-397 77 -209 148 -386 157 -392 13 -10 98 -13 345 -13 315 0 329 1 348 20 11
11 20 26 20 34 0 19 -1418 3548 -1431 3561 -13 13 -614 18 -650 4z m355 -911
c19 -30 456 -1207 456 -1229 0 -10 -7 -25 -16 -33 -14 -14 -71 -16 -476 -16
-415 0 -463 2 -480 17 -10 9 -18 23 -18 31 0 21 438 1201 456 1230 9 13 24 22
39 22 14 0 31 -9 39 -22z"/>
<path d="M19390 4563 c-8 -3 -23 -12 -32 -21 -17 -14 -18 -112 -18 -1786 0
-1587 2 -1774 16 -1794 15 -22 17 -22 309 -22 292 0 294 0 309 22 13 18 16 53
16 168 1 113 3 141 12 125 62 -110 207 -236 345 -302 133 -63 244 -86 428 -87
220 -1 371 32 546 120 341 171 559 508 609 944 16 130 8 401 -15 525 -47 257
-166 488 -338 652 -164 156 -352 250 -585 289 -131 23 -373 15 -487 -15 -197
-52 -380 -178 -481 -330 l-29 -45 -3 761 c-2 757 -2 760 -23 779 -19 18 -41
19 -293 21 -149 1 -278 -1 -286 -4z m1469 -1796 c188 -67 332 -225 387 -427
25 -91 26 -310 1 -400 -57 -212 -204 -371 -402 -437 -71 -23 -96 -26 -215 -26
-119 0 -144 3 -216 26 -212 70 -365 249 -410 477 -24 120 -15 286 21 398 50
156 167 294 311 363 101 48 163 59 314 56 116 -3 146 -7 209 -30z"/>
<path d="M22273 4560 c-12 -5 -27 -18 -32 -29 -8 -14 -10 -544 -9 -1791 3
-1741 3 -1772 22 -1786 16 -11 75 -14 306 -14 265 0 288 1 303 18 16 17 17
156 17 1793 0 1517 -2 1778 -14 1795 -14 18 -30 19 -293 21 -153 1 -288 -2
-300 -7z"/>
<path d="M11975 4547 c-70 -24 -121 -54 -169 -103 -58 -59 -93 -131 -104 -211
-42 -308 241 -531 534 -422 81 30 182 131 212 210 58 156 26 316 -87 429 -71
71 -146 102 -256 106 -57 3 -105 -1 -130 -9z"/>
<path d="M15056 4268 c-14 -20 -16 -80 -16 -463 0 -330 -3 -444 -12 -453 -8
-8 -66 -12 -195 -12 -182 0 -184 0 -208 -25 l-25 -24 0 -226 0 -226 25 -24
c24 -25 26 -25 208 -25 129 0 187 -4 195 -12 9 -9 12 -151 12 -579 0 -323 4
-611 10 -669 30 -292 170 -475 424 -556 93 -29 283 -48 441 -42 92 3 109 6
121 22 11 16 14 71 14 281 0 237 -2 263 -17 277 -12 10 -48 17 -104 21 -48 3
-102 12 -121 20 -50 21 -94 77 -107 137 -17 77 -15 1061 2 1083 10 14 41 17
230 19 203 3 220 4 233 22 11 16 14 67 14 251 0 184 -3 235 -14 251 -13 18
-30 19 -233 22 -189 2 -220 5 -230 19 -10 13 -13 119 -13 453 0 378 -2 438
-16 458 -15 22 -17 22 -309 22 -292 0 -294 0 -309 -22z"/>
<path d="M5042 3411 c-906 -352 -1422 -557 -1439 -572 -56 -52 -53 15 -53
-1366 l0 -1278 23 -39 c30 -54 97 -89 157 -83 44 4 2800 1068 2863 1104 16 10
39 31 51 46 l21 28 3 1298 2 1298 -23 34 c-12 18 -38 44 -56 56 -74 50 -9 72
-1549 -526z"/>
<path d="M95 3932 c-17 -10 -45 -35 -63 -56 l-32 -37 0 -1210 c0 -1326 -3
-1251 58 -1296 39 -29 99 -46 141 -40 20 3 464 210 986 460 1462 700 1717 824
1754 853 79 63 82 185 5 255 -20 19 -441 190 -1371 558 -1455 575 -1404 558
-1478 513z"/>
<path d="M14145 3399 c-294 -41 -496 -201 -629 -499 l-25 -55 -1 225 c0 124
-4 230 -8 236 -20 30 -55 34 -317 34 l-266 0 -24 -25 -25 -24 0 -1156 c0
-1142 0 -1155 20 -1175 19 -19 33 -20 304 -20 245 0 287 2 300 16 14 14 16 72
16 487 0 260 5 528 10 597 23 310 125 500 320 593 103 49 172 65 330 78 90 8
140 16 150 25 13 12 15 67 18 344 l3 330 -58 -1 c-32 -1 -85 -5 -118 -10z"/>
<path d="M17292 3395 c-405 -73 -713 -337 -855 -730 -116 -323 -107 -798 21
-1109 129 -312 366 -536 677 -635 138 -45 207 -55 370 -55 219 -1 366 35 519
126 83 49 203 161 248 231 l33 52 3 -150 c2 -121 6 -152 19 -167 15 -17 40
-18 304 -18 286 0 288 0 303 22 14 20 16 148 16 1178 0 983 -2 1159 -14 1176
-14 18 -29 19 -306 19 -277 0 -292 -1 -306 -19 -11 -15 -14 -56 -14 -170 l0
-151 -37 55 c-80 119 -229 238 -366 293 -156 63 -429 86 -615 52z m543 -610
c116 -30 201 -79 284 -163 44 -44 90 -102 108 -137 71 -136 97 -320 69 -484
-19 -110 -43 -172 -103 -263 -117 -179 -334 -280 -568 -264 -181 12 -291 60
-411 180 -131 131 -184 271 -184 480 0 141 19 230 71 335 76 154 215 267 381
311 93 24 268 27 353 5z"/>
<path d="M24285 3404 c-419 -63 -716 -260 -900 -598 -48 -89 -108 -257 -131
-369 -23 -113 -29 -412 -10 -532 91 -593 504 -976 1116 -1036 211 -20 429 1
613 61 212 69 567 301 567 372 0 24 -255 402 -283 420 -27 17 -58 5 -125 -49
-216 -177 -453 -256 -697 -232 -236 22 -424 142 -514 328 -22 46 -45 107 -51
138 -10 48 -10 57 6 74 16 18 43 19 868 21 l851 3 3 265 c2 258 2 267 -23 354
-38 133 -82 230 -149 330 -153 229 -359 365 -651 431 -68 16 -421 29 -490 19z
m307 -528 c171 -37 310 -155 361 -306 29 -88 30 -107 8 -129 -21 -21 -29 -21
-530 -21 -485 0 -510 1 -532 19 -23 18 -23 21 -11 67 51 188 197 326 392 368
85 19 228 19 312 2z"/>
<path d="M11785 3315 l-25 -24 0 -1156 c0 -1142 0 -1155 20 -1175 19 -19 33
-20 309 -20 288 0 290 0 305 22 14 20 16 148 16 1178 0 635 -4 1160 -8 1166
-20 30 -55 34 -322 34 l-271 0 -24 -25z"/>
</g>
</svg>
