<?xml version="1.0" standalone="no"?>
<!DOCTYPE svg PUBLIC "-//W3C//DTD SVG 20010904//EN"
 "http://www.w3.org/TR/2001/REC-SVG-20010904/DTD/svg10.dtd">
<svg version="1.0" xmlns="http://www.w3.org/2000/svg"
 width="1597.000000pt" height="366.000000pt" viewBox="0 0 1597.000000 366.000000"
 preserveAspectRatio="xMidYMid meet">

<g transform="translate(0.000000,366.000000) scale(0.100000,-0.100000)"
fill="#000000" stroke="none">
<path d="M713 2413 c4 -1341 0 -1266 72 -1480 133 -398 440 -705 838 -838 142
-48 258 -66 417 -67 286 0 536 76 770 236 92 62 259 227 325 321 100 142 179
324 222 515 24 109 24 405 0 520 -61 288 -185 519 -381 708 -180 174 -387 284
-636 338 -128 28 -394 26 -511 -3 -216 -54 -394 -153 -556 -306 l-73 -70 0
667 0 666 -245 0 -246 0 4 -1207z m1532 -269 c295 -80 509 -294 591 -594 25
-90 25 -289 0 -385 -64 -244 -237 -450 -463 -550 -149 -67 -362 -85 -519 -45
-292 75 -520 303 -594 594 -39 156 -21 372 43 518 104 234 325 414 577 469
101 23 269 19 365 -7z"/>
<path d="M6420 2422 c0 -1055 2 -1210 16 -1293 94 -548 529 -986 1079 -1084
122 -22 344 -22 460 -1 271 51 503 167 691 348 326 313 471 755 394 1204 -93
544 -486 957 -1020 1069 -116 25 -317 30 -430 11 -236 -38 -439 -138 -622
-306 l-78 -71 -2 658 -3 658 -242 3 -243 2 0 -1198z m1540 -282 c258 -73 464
-263 551 -508 108 -308 29 -638 -208 -863 -108 -103 -223 -165 -372 -201 -115
-27 -310 -22 -416 12 -283 90 -488 310 -556 598 -28 115 -23 301 11 407 117
367 436 596 810 580 64 -2 134 -12 180 -25z"/>
<path d="M9393 2398 c3 -1211 3 -1224 24 -1313 66 -277 180 -483 367 -670 280
-279 653 -415 1050 -384 569 46 1043 446 1181 998 138 550 -83 1142 -539 1446
-307 204 -695 267 -1035 169 -176 -52 -361 -160 -493 -290 l-68 -66 0 666 0
666 -245 0 -246 0 4 -1222z m1493 -247 c316 -65 568 -318 634 -636 18 -85 16
-246 -5 -335 -22 -98 -101 -259 -165 -337 -105 -129 -270 -232 -439 -274 -70
-18 -106 -21 -215 -17 -114 4 -143 9 -222 36 -132 45 -225 103 -324 202 -95
96 -154 190 -194 312 -71 210 -56 410 44 613 78 159 195 279 350 359 177 92
347 116 536 77z"/>
<path d="M12460 1855 l0 -1765 265 0 265 0 0 1765 0 1765 -265 0 -265 0 0
-1765z"/>
<path d="M14535 2673 c-296 -27 -545 -138 -749 -333 -116 -111 -195 -218 -261
-354 -102 -210 -141 -406 -132 -676 11 -375 125 -663 357 -904 226 -234 527
-356 920 -372 238 -10 466 24 694 103 164 56 367 158 450 226 l29 24 -108 189
c-59 104 -109 191 -111 192 -1 2 -23 -10 -48 -27 -136 -94 -383 -187 -587
-222 -102 -18 -150 -20 -269 -16 -172 6 -264 27 -390 89 -117 58 -248 187
-307 303 -36 71 -72 167 -86 233 l-5 22 983 0 c927 0 983 1 990 18 16 41 17
337 1 458 -76 574 -460 964 -1022 1039 -100 13 -252 17 -349 8z m318 -469 c40
-9 110 -34 157 -56 69 -33 101 -57 171 -127 73 -73 93 -101 132 -181 38 -79
77 -206 77 -249 0 -8 -225 -11 -729 -11 l-730 0 20 69 c76 276 277 484 531
551 94 24 270 26 371 4z"/>
<path d="M3713 1783 c3 -823 4 -840 26 -938 91 -410 350 -680 749 -781 245
-62 590 -45 817 41 308 116 517 357 595 687 36 153 40 269 40 1059 l0 769
-265 0 -264 0 -4 -812 c-3 -732 -5 -819 -20 -877 -39 -144 -120 -263 -227
-331 -28 -18 -85 -44 -128 -58 -65 -21 -96 -25 -202 -26 -104 -1 -137 3 -200
23 -149 46 -260 140 -324 274 -66 138 -66 138 -66 1017 l0 790 -266 0 -265 0
4 -837z"/>
<path d="M285 681 c-89 -23 -175 -93 -216 -177 -21 -42 -24 -63 -24 -149 0
-92 2 -104 29 -153 37 -66 92 -117 164 -149 44 -21 70 -26 133 -26 69 0 88 5
144 32 78 39 136 102 166 180 30 79 24 194 -14 268 -57 111 -156 174 -281 179
-39 2 -84 0 -101 -5z"/>
</g>
</svg>
