<?xml version="1.0" standalone="no"?>
<!DOCTYPE svg PUBLIC "-//W3C//DTD SVG 20010904//EN"
 "http://www.w3.org/TR/2001/REC-SVG-20010904/DTD/svg10.dtd">
<svg version="1.0" xmlns="http://www.w3.org/2000/svg"
 width="336.000000pt" height="83.000000pt" viewBox="0 0 336.000000 83.000000"
 preserveAspectRatio="xMidYMid meet">

<g transform="translate(0.000000,83.000000) scale(0.100000,-0.100000)"
fill="#000000" stroke="none">
<path d="M520 690 l0 -40 45 0 45 0 0 40 0 40 -45 0 -45 0 0 -40z"/>
<path d="M1640 661 l0 -70 -27 15 c-38 19 -80 17 -129 -5 -74 -34 -106 -146
-68 -241 30 -75 112 -108 189 -76 25 11 41 13 43 6 2 -5 24 -10 48 -10 l44 0
0 225 0 225 -50 0 -50 0 0 -69z m-25 -123 c24 -11 25 -15 25 -94 l0 -82 -35
-12 c-50 -16 -86 3 -103 56 -16 52 1 112 38 131 31 16 42 16 75 1z"/>
<path d="M253 600 c-27 -16 -33 -17 -33 -5 0 11 -12 15 -45 15 l-45 0 0 -225
0 -225 50 0 50 0 0 66 c0 60 2 65 18 58 9 -5 40 -9 69 -9 92 0 147 63 147 170
0 134 -112 216 -211 155z m95 -74 c20 -20 27 -100 12 -135 -15 -37 -59 -56
-97 -44 -27 9 -28 11 -31 96 -3 83 -2 88 20 97 28 12 78 4 96 -14z"/>
<path d="M793 600 c-27 -16 -33 -17 -33 -5 0 11 -12 15 -45 15 l-45 0 0 -225
0 -225 50 0 50 0 0 66 c0 60 2 65 18 58 9 -5 40 -9 69 -9 92 0 147 63 147 170
0 134 -112 216 -211 155z m95 -74 c20 -20 27 -100 12 -135 -15 -37 -59 -56
-97 -44 -27 9 -28 11 -31 96 -3 83 -2 88 20 97 28 12 78 4 96 -14z"/>
<path d="M1133 599 c-77 -38 -107 -154 -63 -244 32 -66 107 -95 204 -81 55 9
76 27 76 68 0 25 -3 29 -17 22 -10 -4 -48 -10 -84 -12 -63 -3 -67 -2 -89 25
l-22 28 111 3 111 3 0 49 c0 65 -24 113 -70 139 -48 27 -103 27 -157 0z m125
-77 c6 -9 12 -24 12 -34 0 -16 -9 -18 -65 -18 -36 0 -65 2 -65 4 0 3 4 16 10
31 17 44 78 54 108 17z"/>
<path d="M1917 600 c-21 -17 -26 -18 -31 -5 -3 10 -19 15 -46 15 l-40 0 0
-165 0 -165 45 0 45 0 0 113 c0 129 9 147 72 147 33 0 36 3 41 33 7 50 -38 65
-86 27z"/>
<path d="M2103 599 c-77 -38 -107 -154 -63 -244 32 -66 107 -95 204 -81 55 9
76 27 76 68 0 25 -3 29 -17 22 -10 -4 -48 -10 -84 -12 -63 -3 -67 -2 -89 25
l-22 28 111 3 111 3 0 49 c0 65 -24 113 -70 139 -48 27 -103 27 -157 0z m125
-77 c6 -9 12 -24 12 -34 0 -16 -9 -18 -65 -18 -36 0 -65 2 -65 4 0 3 4 16 10
31 17 44 78 54 108 17z"/>
<path d="M2428 608 c-35 -9 -38 -13 -38 -47 l0 -38 61 15 c67 17 111 9 117
-20 3 -13 -10 -21 -55 -33 -123 -34 -143 -51 -143 -120 0 -80 88 -119 170 -76
32 17 40 18 40 6 0 -11 12 -15 44 -15 l43 0 -5 138 c-2 75 -9 145 -14 155 -22
42 -130 59 -220 35z m142 -208 c0 -44 -18 -60 -69 -60 -38 0 -57 28 -37 56 11
15 65 38 99 43 4 1 7 -17 7 -39z"/>
<path d="M2850 603 c-14 -9 -28 -21 -31 -26 -3 -5 -9 1 -12 12 -4 17 -13 21
-46 21 l-41 0 0 -165 0 -165 50 0 50 0 0 118 c0 130 5 142 57 142 46 0 53 -21
53 -149 l0 -111 45 0 45 0 0 120 c0 108 2 120 19 130 26 14 64 13 79 -2 8 -8
12 -52 12 -130 l0 -118 51 0 51 0 -4 140 c-3 137 -3 140 -31 167 -23 24 -36
28 -81 28 -44 0 -59 -5 -81 -25 -16 -15 -29 -21 -33 -14 -16 23 -59 44 -92 44
-20 0 -47 -8 -60 -17z"/>
<path d="M520 445 l0 -165 45 0 45 0 0 165 0 165 -45 0 -45 0 0 -165z"/>
</g>
</svg>
