<?xml version="1.0" standalone="no"?>
<!DOCTYPE svg PUBLIC "-//W3C//DTD SVG 20010904//EN"
 "http://www.w3.org/TR/2001/REC-SVG-20010904/DTD/svg10.dtd">
<svg version="1.0" xmlns="http://www.w3.org/2000/svg"
 width="882.000000pt" height="297.000000pt" viewBox="0 0 882.000000 297.000000"
 preserveAspectRatio="xMidYMid meet">

<g transform="translate(0.000000,297.000000) scale(0.100000,-0.100000)"
fill="#000000" stroke="none">
<path d="M5087 2963 c-4 -3 -7 -58 -7 -122 l0 -116 -85 85 -85 85 -47 -48 -48
-47 85 -85 84 -84 -120 -3 -119 -3 -3 -67 -3 -68 123 0 123 0 -83 -83 c-45
-45 -82 -87 -82 -93 0 -5 20 -30 45 -54 l45 -44 85 84 85 85 0 -117 c0 -129
-1 -128 77 -128 62 0 63 1 63 126 0 63 3 114 7 114 4 0 44 -37 89 -81 l82 -82
47 48 48 47 -89 89 -89 89 122 0 c133 0 133 0 133 63 0 79 1 78 -131 75 l-119
-3 86 86 86 87 -42 46 c-23 25 -48 46 -54 46 -6 0 -48 -37 -93 -82 l-83 -83 0
123 0 122 -63 0 c-35 0 -67 -3 -70 -7z m149 -316 c3 -3 10 -23 15 -44 12 -52
1 -121 -22 -133 -21 -12 -139 -13 -156 -2 -17 11 -26 76 -18 128 5 33 12 48
28 55 22 9 143 6 153 -4z"/>
<path d="M2754 1899 c-88 -7 -155 -18 -238 -40 l-39 -10 6 -59 c9 -79 34 -142
56 -136 142 44 356 55 447 23 89 -31 132 -97 141 -214 6 -73 5 -75 -15 -69
-47 15 -306 9 -377 -9 -256 -63 -391 -245 -355 -479 27 -177 134 -280 332
-322 135 -29 477 -6 641 42 16 5 17 35 17 442 0 463 -5 525 -50 617 -80 165
-271 237 -566 214z m324 -695 l52 -7 0 -203 0 -203 -37 -8 c-21 -4 -103 -8
-183 -8 -132 0 -149 2 -187 23 -57 30 -93 86 -100 153 -13 128 53 217 184 248
46 11 198 13 271 5z"/>
<path d="M4185 1899 c-81 -11 -138 -32 -195 -74 -49 -36 -109 -100 -111 -119
-1 -6 -7 29 -13 79 l-11 90 -50 8 c-27 5 -78 6 -112 2 l-63 -7 0 -933 0 -932
31 -7 c40 -8 177 -8 207 0 l22 6 0 288 0 288 43 -10 c58 -14 281 -12 342 2 28
6 57 13 65 15 45 9 132 52 185 90 99 70 169 167 209 287 36 108 38 120 43 273
4 127 2 151 -22 250 -26 108 -76 215 -129 274 -87 97 -276 153 -441 130z m107
-223 c146 -34 222 -175 222 -416 1 -104 -3 -137 -22 -195 -47 -141 -120 -223
-235 -263 -58 -21 -79 -23 -184 -19 -120 4 -160 10 -175 25 -5 5 -8 150 -6
323 l3 314 27 55 c47 95 115 155 201 176 68 16 100 16 169 0z"/>
<path d="M6114 1899 c-333 -33 -537 -314 -517 -714 14 -307 146 -500 397 -581
67 -22 105 -28 226 -32 157 -5 239 4 357 39 l75 23 -6 57 c-5 49 -32 139 -41
139 -2 0 -45 -11 -96 -25 -178 -47 -338 -43 -462 12 -105 47 -171 151 -184
290 l-6 63 434 2 434 3 3 117 c3 141 -14 233 -63 336 -94 198 -295 297 -551
271z m199 -217 c87 -39 155 -146 171 -269 l7 -53 -316 0 c-192 0 -315 4 -315
10 0 67 53 195 104 248 80 86 236 114 349 64z"/>
<path d="M7042 1883 l-42 -4 2 -642 3 -642 120 0 120 0 6 395 c5 419 5 414 57
517 48 94 149 146 282 147 87 1 87 1 89 116 2 115 4 113 -108 108 -127 -5
-185 -32 -273 -127 -60 -64 -64 -67 -66 -42 -4 74 -14 148 -20 157 -8 13 -108
22 -170 17z"/>
<path d="M1266 1858 c-8 -30 -8 -142 0 -162 5 -14 41 -16 299 -16 l294 0 -95
-147 c-51 -82 -99 -154 -105 -161 -6 -7 -16 -23 -22 -35 -7 -12 -28 -46 -47
-76 -19 -30 -66 -103 -105 -163 -38 -59 -95 -147 -125 -194 -30 -48 -81 -127
-113 -176 -41 -64 -56 -95 -52 -111 l6 -22 497 0 c432 0 498 2 504 15 8 19 10
138 2 168 l-6 23 -314 -3 c-173 -2 -314 -2 -314 -1 0 1 26 41 58 90 32 48 65
99 72 112 7 14 17 30 22 35 15 18 98 146 98 151 0 3 26 45 59 93 59 88 283
434 334 516 19 30 26 53 22 66 -6 20 -14 20 -485 20 l-478 0 -6 -22z"/>
<path d="M4915 1830 c-4 -27 -4 -72 0 -100 l7 -50 79 0 79 0 2 -542 3 -543
120 0 120 0 3 643 2 642 -204 0 -204 0 -7 -50z"/>
</g>
</svg>
