<?xml version="1.0" standalone="no"?>
<!DOCTYPE svg PUBLIC "-//W3C//DTD SVG 20010904//EN"
 "http://www.w3.org/TR/2001/REC-SVG-20010904/DTD/svg10.dtd">
<svg version="1.0" xmlns="http://www.w3.org/2000/svg"
 width="1525.000000pt" height="425.000000pt" viewBox="0 0 1525.000000 425.000000"
 preserveAspectRatio="xMidYMid meet">

<g transform="translate(0.000000,425.000000) scale(0.100000,-0.100000)"
fill="#000000" stroke="none">
<path d="M11525 4240 c-350 -63 -610 -325 -665 -670 -5 -36 -10 -152 -10 -257
l0 -193 -166 0 c-95 0 -174 -4 -185 -10 -18 -10 -19 -23 -19 -178 0 -117 4
-172 12 -180 8 -8 64 -12 185 -12 l173 0 0 -876 c0 -584 3 -882 10 -895 10
-18 23 -19 205 -19 189 0 194 1 209 22 14 20 16 121 16 895 l0 873 159 0 c136
0 161 2 172 17 21 25 14 321 -8 346 -14 15 -36 17 -175 17 l-158 0 0 163 c0
89 4 188 10 220 13 81 50 157 105 216 108 116 231 149 442 120 117 -17 113
-24 113 186 0 126 -3 175 -12 183 -35 27 -318 49 -413 32z"/>
<path d="M288 4191 c-31 -10 -72 -28 -91 -39 -55 -35 -136 -127 -165 -189
l-27 -58 0 -636 c0 -470 3 -642 12 -660 6 -13 21 -45 32 -71 43 -102 177 -197
307 -218 80 -13 3408 -13 3488 0 139 23 260 113 319 238 l32 67 0 620 c0 341
-4 637 -8 659 -19 101 -136 234 -244 278 l-58 23 -1770 2 c-1676 1 -1773 1
-1827 -16z"/>
<path d="M12596 3708 c-14 -19 -16 -65 -16 -305 l0 -283 -288 0 c-267 0 -290
-1 -305 -18 -24 -26 -25 -306 -1 -340 15 -22 17 -22 305 -22 l289 0 0 -873 c0
-774 2 -875 16 -895 15 -21 20 -22 203 -22 169 0 190 2 204 18 16 17 17 94 17
895 l0 877 298 0 c218 0 301 3 310 12 17 17 17 339 0 356 -9 9 -92 12 -310 12
l-298 0 0 283 c0 240 -2 286 -16 305 -15 21 -20 22 -204 22 -184 0 -189 -1
-204 -22z"/>
<path d="M6775 3158 c-135 -9 -250 -39 -374 -99 -87 -43 -117 -64 -181 -128
-121 -120 -170 -241 -170 -414 0 -165 47 -286 149 -387 118 -117 248 -170 588
-240 327 -68 417 -98 492 -166 61 -55 81 -100 81 -181 -1 -190 -146 -293 -415
-293 -222 0 -386 83 -452 227 -14 31 -28 76 -31 100 -8 70 -17 73 -232 73
-229 0 -226 1 -217 -96 12 -145 90 -299 207 -406 84 -78 156 -122 268 -164
153 -57 232 -69 462 -69 182 0 215 3 293 23 252 67 418 185 503 357 109 220
72 511 -84 669 -123 126 -276 191 -612 261 -245 51 -323 72 -399 106 -116 53
-163 114 -163 214 0 155 121 253 337 272 215 18 425 -95 471 -255 33 -114 5
-102 237 -102 145 0 206 3 215 12 29 29 3 160 -55 272 -26 49 -63 97 -123 157
-128 129 -262 199 -455 238 -119 23 -206 28 -340 19z"/>
<path d="M8945 3140 c-439 -93 -774 -435 -850 -869 -22 -124 -20 -350 5 -470
85 -417 389 -743 801 -857 117 -32 335 -44 456 -24 424 68 767 378 880 795 25
92 27 115 27 300 1 176 -2 211 -22 288 -78 308 -253 545 -521 707 -219 131
-525 182 -776 130z m393 -395 c228 -54 402 -230 474 -481 33 -115 33 -343 0
-458 -72 -250 -241 -423 -472 -483 -86 -22 -245 -22 -330 1 -232 61 -405 238
-472 483 -17 62 -21 108 -22 223 -1 173 14 240 81 379 81 165 238 294 410 335
78 19 252 19 331 1z"/>
<path d="M14925 3145 c-220 -49 -408 -175 -536 -360 l-34 -50 -3 179 c-1 112
-7 185 -13 193 -9 10 -56 13 -200 13 -157 0 -190 -3 -203 -16 -14 -14 -16
-124 -16 -1065 0 -705 3 -1057 10 -1070 10 -18 23 -19 215 -19 l205 0 0 575
c0 656 1 668 76 822 74 155 207 271 376 330 86 30 249 42 341 24 100 -18 97
-26 97 224 0 202 -1 215 -19 225 -27 14 -224 11 -296 -5z"/>
<path d="M775 1888 c-84 -17 -227 -68 -294 -106 -126 -70 -246 -181 -316 -292
-16 -25 -39 -61 -51 -80 -104 -160 -143 -481 -84 -705 64 -247 233 -461 462
-585 141 -76 282 -110 453 -110 174 0 292 28 437 102 254 131 436 373 493 657
24 115 16 334 -14 439 -93 321 -333 561 -657 658 -75 22 -111 27 -234 29 -80
2 -167 -1 -195 -7z"/>
<path d="M2598 1881 c-31 -10 -72 -28 -91 -39 -55 -35 -136 -127 -165 -189
l-27 -58 0 -640 0 -640 32 -67 c59 -124 180 -216 317 -238 77 -12 1105 -13
1180 0 139 23 260 113 319 238 l32 67 3 600 c3 639 2 667 -45 763 -35 71 -135
163 -210 194 l-58 23 -615 2 c-572 2 -619 1 -672 -16z"/>
</g>
</svg>
